<?xml version="1.0" encoding="UTF-8" standalone="no"?><!DOCTYPE svg PUBLIC "-//W3C//DTD SVG 1.1//EN" "http://www.w3.org/Graphics/SVG/1.1/DTD/svg11.dtd"><svg width="100%" height="100%" viewBox="0 0 900 900" version="1.1" xmlns="http://www.w3.org/2000/svg" xmlns:xlink="http://www.w3.org/1999/xlink" xml:space="preserve" xmlns:serif="http://www.serif.com/" style="fill-rule:evenodd;clip-rule:evenodd;stroke-linejoin:round;stroke-miterlimit:2;"><path d="M491.208,432.917c45.667,-46.375 153.167,-160.208 267.292,-190.375c27.25,40.417 46.792,86.458 56.417,135.958c-102.042,59.417 -258.542,54.958 -323.708,54.417m267.292,224.542c-114.125,-30.167 -221.625,-144 -267.292,-190.375c65.167,-0.542 221.667,-5 323.708,54.417c-9.625,49.5 -29.167,95.542 -56.417,135.958m-237,157.458c-59.417,-102.042 -54.958,-258.542 -54.417,-323.708c46.375,45.667 160.208,153.167 190.375,267.292c-40.417,27.25 -86.458,46.792 -135.958,56.417m0,-729.833c49.5,9.625 95.542,29.167 135.958,56.417c-30.167,114.125 -144,221.625 -190.375,267.292c-0.542,-65.167 -5,-221.667 54.417,-323.708m-88.583,323.708c-46.375,-45.667 -160.208,-153.167 -190.375,-267.292c40.417,-27.25 86.458,-46.792 135.958,-56.417c59.417,102.042 54.958,258.542 54.417,323.708m-54.417,406.125c-49.5,-9.625 -95.542,-29.167 -135.958,-56.417c30.167,-114.125 144,-221.625 190.375,-267.292c0.542,65.167 5,221.667 -54.417,323.708m-237,-157.458c-27.25,-40.417 -46.792,-86.458 -56.417,-135.958c102.042,-59.417 258.542,-54.958 323.708,-54.417c-45.667,46.375 -153.167,160.208 -267.292,190.375m0,-414.917c114.125,30.167 221.625,144 267.292,190.375c-65.167,0.542 -221.667,5 -323.708,-54.417c9.625,-49.5 29.167,-95.542 56.417,-135.958m699.333,151.5c-9.542,-66.958 -35.958,-128.542 -74.75,-180.333c-6.417,-17.625 -10.208,-44.958 2.125,-81.917c-36.958,12.333 -64.292,8.542 -81.917,2.125c-51.792,-38.792 -113.375,-65.208 -180.333,-74.75c-16.958,-7.958 -38.667,-24.625 -55.958,-59.167c-17.292,34.542 -39,51.208 -55.958,59.167c-66.958,9.542 -128.542,35.958 -180.333,74.75c-17.625,6.417 -44.958,10.208 -81.917,-2.125c12.333,36.958 8.542,64.292 2.125,81.917c-38.792,51.792 -65.208,113.375 -74.75,180.333c-7.958,16.958 -24.625,38.667 -59.167,55.958c34.542,17.292 51.208,39 59.167,55.958c9.542,66.958 35.958,128.542 74.75,180.333c6.417,17.625 10.208,44.958 -2.125,81.917c36.958,-12.333 64.292,-8.542 81.917,-2.125c51.792,38.792 113.375,65.208 180.333,74.75c16.958,7.958 38.667,24.625 55.958,59.167c17.292,-34.542 39,-51.208 55.958,-59.167c66.958,-9.542 128.542,-35.958 180.333,-74.75c17.625,-6.417 44.958,-10.208 81.917,2.125c-12.333,-36.958 -8.542,-64.292 -2.125,-81.917c38.792,-51.792 65.208,-113.375 74.75,-180.333c7.958,-16.958 24.625,-38.667 59.167,-55.958c-34.542,-17.292 -51.208,-39 -59.167,-55.958" style="fill-rule:nonzero;"/></svg>